<?xml version="1.0" standalone="no"?>
<!DOCTYPE svg PUBLIC "-//W3C//DTD SVG 20010904//EN"
 "http://www.w3.org/TR/2001/REC-SVG-20010904/DTD/svg10.dtd">
<svg version="1.0" xmlns="http://www.w3.org/2000/svg"
 width="570.000000pt" height="570.000000pt" viewBox="0 0 570.000000 570.000000"
 preserveAspectRatio="xMidYMid meet">
<metadata>
Created by potrace 1.14, written by Peter Selinger 2001-2017
</metadata>
<g transform="translate(0.000000,570.000000) scale(0.100000,-0.100000)"
fill="#000000" stroke="none">
<path d="M1718 5385 c-2 -2 -21 -6 -43 -9 -163 -22 -316 -107 -421 -234 -100
-122 -179 -323 -200 -512 -3 -25 -7 -61 -10 -80 -6 -51 -5 -264 1 -340 6 -65
30 -244 41 -311 6 -36 6 -37 -42 -54 -233 -86 -458 -204 -619 -324 -94 -71
-238 -219 -286 -296 -65 -105 -90 -163 -114 -269 -7 -34 -8 -160 0 -196 18
-94 32 -135 71 -215 103 -214 299 -402 585 -560 91 -50 297 -143 368 -165 42
-14 43 -15 37 -49 -12 -80 -17 -107 -21 -127 -22 -104 -26 -508 -6 -619 32
-174 83 -314 152 -415 220 -324 634 -394 1105 -186 154 68 329 180 529 340 23
19 39 26 43 19 13 -20 269 -208 348 -255 170 -100 353 -179 469 -202 17 -3 44
-8 60 -12 17 -3 80 -7 140 -9 287 -8 507 130 638 399 37 76 83 215 92 281 4
28 9 59 12 70 22 109 22 426 -1 585 -2 14 -6 50 -10 80 -4 30 -11 71 -16 90
-5 19 -6 38 -2 42 4 3 50 22 102 41 208 76 348 145 511 253 306 201 464 465
446 744 -6 94 -8 104 -32 174 -99 287 -422 557 -885 739 -63 24 -122 47 -131
50 -15 5 -16 12 -4 69 14 65 20 110 31 213 3 33 8 71 10 85 6 34 5 296 -1 345
-12 104 -18 136 -36 210 -10 44 -23 89 -28 100 -51 120 -72 159 -110 215 -140
200 -327 299 -569 299 -293 0 -632 -151 -982 -438 -41 -33 -79 -61 -85 -61 -5
0 -28 17 -50 37 -120 108 -340 256 -485 325 -136 66 -242 102 -360 123 -40 7
-236 15 -242 10z"/>
</g>
</svg>
